<svg xmlns="http://www.w3.org/2000/svg" width="151" height="114" viewBox="0 0 151 114" fill="none">
  <g id="combined-image">
    <path d="M122.698 88.2486C122.698 88.2486 122.552 94.6143 104.552 98.4191C86.5524 102.151 38.4801 108.004 16.3097 112.98C-5.86065 117.955 -0.226596 94.1753 6.43183 87.4437C13.0903 80.7121 37.0167 29.4935 44.0409 17.7863C51.0652 6.1524 62.4065 0.737854 62.4065 0.737854C87.3573 8.12797 122.698 88.2486 122.698 88.2486Z" fill="#EAB363"/>
    <path d="M63.698 88.2486C63.698 88.2486 63.698 89.2729 62.4541 90.8095C45.6983 80.7121 7.94283 16.9083 2.38195 9.51819C0.406378 6.81092 0.260038 4.32316 0.991733 2.12808C2.52829 1.17687 3.40633 0.737854 3.40633 0.737854C28.3571 8.12797 63.698 88.2486 63.698 88.2486Z" fill="#FFD399"/>
    <path d="M8.89319 20.4195C8.6493 20.4683 8.42979 20.4927 8.23467 20.4927C6.03959 20.4927 3.69817 15.0782 3.69817 15.0782L0.917725 0.371094H14.6004C14.6004 0.371094 21.2588 4.9076 23.6003 8.34656L7.06396 10.6148L8.89319 20.4195Z" fill="#EAB363"/>
    <path d="M20.2098 4.71195C20.2098 4.71195 14.8684 14.9557 9.01483 14.0045C3.16127 13.0533 0.600342 0.83397 0.600342 0.83397C12.6733 -1.14161 20.2098 4.71195 20.2098 4.71195Z" fill="#EAB363"/>
    <path d="M11.3314 79.7363C11.3314 79.7363 -1.47325 51.2002 0.50233 43.1516C2.40474 35.0298 30.2823 0.859619 30.2823 0.859619C30.7213 9.56679 11.3314 79.7363 11.3314 79.7363Z" fill="#8C5E28"/>
    <path d="M26.4553 14.2984C27.9187 19.0544 22.0651 20.2251 12.2604 21.469C2.52886 22.6397 -2.3735 30.4689 2.01667 21.469C6.40684 12.396 16.2116 0.542542 16.2116 0.542542C16.2116 0.542542 24.9919 9.46922 26.4553 14.2984Z" fill="#F4CD9A"/>
    <path d="M43.014 0.128174C43.014 0.128174 73.1598 25.7375 100.818 48.4932C128.476 71.2489 150.427 73.1513 150.5 78.639C150.5 84.0536 143.11 86.6877 115.598 88.2974C88.0132 89.834 50.77 112.956 23.8436 108.2C23.8436 108.2 4.45367 80.4683 0.356182 61.9564C-3.81448 43.3713 43.014 0.128174 43.014 0.128174Z" fill="#EAB363"/>
    <path d="M23.8436 108.2C23.8436 108.2 4.45367 80.4683 0.356182 61.9564C-3.81448 43.3713 43.014 0.128174 43.014 0.128174C43.014 0.128174 44.4774 1.37205 47.0383 3.49397C44.1847 21.8595 34.8922 81.3463 27.5752 108.712C26.3069 108.565 25.0631 108.395 23.8436 108.2Z" fill="#FFD399"/>
  </g>
</svg>
